<svg id="Calque_1" data-name="Calque 1" xmlns="http://www.w3.org/2000/svg" viewBox="0 0 273.99 191"><defs><style>.cls-1{fill:#fff;}</style></defs><title>logo_confidential_inverse</title><path class="cls-1" d="M178.23,188.18c-14.58,9-23.59,42.09-23.72,69.68,0,0,0,.2,0,.55a4.79,4.79,0,0,1,.77-.07H161c.17,0,.32,0,.48,0a7.61,7.61,0,0,1,.14-2c1.32-24.51,8.67-53.75,18.42-62.81A5.26,5.26,0,0,1,178.23,188.18Z" transform="translate(-151.5 -150.5)"/><path class="cls-1" d="M225.43,252.26c-1.72,6-5.07,10.2-8.66,11.9-2.54,7.3-6.34,11.6-11.12,11.6-5.15,0-7.39-7.2-7.39-16.3a74.87,74.87,0,0,1,2.31-17.8l2.69.9c.82-7.7,4-14.41,9.26-14.41,5,0,7.61,7.71,7.61,16.71a68.66,68.66,0,0,1-1.86,14.4c1.94-1.2,3.73-3.7,5.07-8.4C223.79,250.86,225.43,251.66,225.43,252.26Zm-15.45,12c-3.14-1.6-5.15-5.6-6.2-10.4-.15,1.5-.22,3-.22,4.3,0,5.9,1.19,10,3.06,10a1.29,1.29,0,0,0,.6-.1C208.19,267.66,209.08,266.26,210,264.26Zm-3-16.1c0,5.4,1.2,10.6,4.56,11.9a65.59,65.59,0,0,0,2.76-17.6c0-4.5-.82-7.9-2.91-7.9-.15,0-.38.1-.52.1C208.71,235.26,207,241.76,207,248.16Z" transform="translate(-151.5 -150.5)"/><path class="cls-1" d="M219.61,274.76a100.19,100.19,0,0,1,2.76-16.6c1.49-11.3,2.76-21.4,3.66-29h6.42l-.82,6.7c2.39-4.8,5.37-7.8,8.51-7.8,2.61,0,4.33,2.29,4.33,7.1,0,9.3-4.86,21.2-4.86,29.4,0,2.9.83,3.4,1.5,3.4,1.94,0,4.4-5.6,7.69-17.1.44,0,2.09.8,2.09,1.4-3.29,11.4-6.65,23-12.77,23-2.61,0-5.07-2.8-5.07-8.9,0-10.8,4.85-21.9,4.85-29.1,0-1.1-.38-2-1.2-2-1.86,0-5.15,4.7-7.61,18.8l-3,20.7Z" transform="translate(-151.5 -150.5)"/><path class="cls-1" d="M245.74,284.26c0-21.7,7.68-70.81,11.72-83.11,1.41-4.2,3.8-6.2,6-6.2,2.61,0,5,2.8,5,7.9,0,20.8-9.85,41-14,48.61-.74,5.1-1.34,10.1-1.86,14.8,6-1.1,9.55-6.6,12-15.4.44,0,2.09.8,2.09,1.4-2.54,8.8-5.83,15.6-11.65,18.1a25,25,0,0,1,4.26,14.3c0,7.2-2.77,13.3-6.72,13.3C249.24,298,245.74,295.86,245.74,284.26Zm10,1.9c0-4.2-1.12-9.3-3.73-12.8-.38,4.6-.6,8.6-.6,11.9,0,4.8.52,7.7,1.79,7.7C254.77,293,255.74,290,255.74,286.16Zm8.66-84.71c-1.5,0-5.23,19.4-8.36,39.81,3.65-9.1,9-25.51,9.1-37.61C265.14,202.25,264.84,201.45,264.4,201.45Z" transform="translate(-151.5 -150.5)"/><path class="cls-1" d="M274.55,229.16c-2.61,15.6-4.78,27.2-4.78,35.4,0,2.9.82,3.4,1.5,3.4,1.94,0,4.4-5.6,7.68-17.1.38,0,2.09.7,2.09,1.3v.1c-3.28,11.4-5.89,23-12,23-4,0-5.38-5-5.38-11.9,0-11.1,3.29-27,4.55-34.2Zm-5.45-10.91c0-3.6,1.94-7.9,5.23-7.9,2.46,0,3.5,2.4,3.5,5.2,0,3.6-1.94,7.8-5.22,7.8C270.22,223.35,269.1,221,269.1,218.25Z" transform="translate(-151.5 -150.5)"/><path class="cls-1" d="M300.68,196.05h5.89c-.3,8.5-3,29-6.19,45.61-1.42,10.7-2,17-2,20.3,0,2.1.23,2.9.75,2.9,1.72,0,3.95-5.7,6.34-14,.45,0,2.09.8,2.09,1.4-4.55,16-8.81,23-12.24,23-2.39,0-3.73-2.9-3.73-9.8v-1.1c-1.72,6.1-4.33,11.4-8.59,11.4-3.65,0-5.15-5.5-5.15-12.7,0-14.1,5.68-34.91,12.77-34.91,2.76,0,4.33,2.2,4.85,6.71Zm-16.58,66c0,3.1.45,5.2,1.5,5.2,3.43,0,7.69-16.3,7.69-25.6,0-3.7-.68-6.3-2.32-6.3C287.76,235.36,284.1,253.06,284.1,262.06Z" transform="translate(-151.5 -150.5)"/><path class="cls-1" d="M326.8,250.86c.45,0,2.09.8,2.09,1.4-3.73,13.1-7.46,23.5-14.78,23.5-6.49,0-9.18-8-9.18-17.4,0-13.6,5.6-30.21,14-30.21,3.73,0,5.6,3.61,5.6,8.21,0,7.1-4.48,16.7-13.29,18.6v1.5c0,6,1.27,10.8,4.7,10.8C320.31,267.26,324,261.06,326.8,250.86Zm-15.37.3a19.09,19.09,0,0,0,8.06-14.3c0-1.5-.45-2.5-1.2-2.5C315.23,234.36,312.32,242.86,311.43,251.16Z" transform="translate(-151.5 -150.5)"/><path class="cls-1" d="M323.07,274.76a100.19,100.19,0,0,1,2.76-16.6c1.5-11.3,2.77-21.4,3.66-29h6.42l-.82,6.7c2.39-4.8,5.37-7.8,8.51-7.8,2.61,0,4.33,2.29,4.33,7.1,0,9.3-4.85,21.2-4.85,29.4,0,2.9.82,3.4,1.49,3.4,1.94,0,4.4-5.6,7.69-17.1.45,0,2.09.8,2.09,1.4-3.29,11.4-6.64,23-12.77,23-2.61,0-5.07-2.8-5.07-8.9,0-10.8,4.85-21.9,4.85-29.1,0-1.1-.37-2-1.19-2-1.87,0-5.16,4.7-7.62,18.8l-3,20.7Z" transform="translate(-151.5 -150.5)"/><path class="cls-1" d="M363.83,205.55a208.49,208.49,0,0,1-2.39,23.8,22.54,22.54,0,0,0,2.91-.19l-.67,4.7a21.86,21.86,0,0,1-3.06.1c-.67,3.8-1.42,7.7-2.32,11.8-.74,6.9-1.12,12.1-1.12,15.8,0,4.2.53,6.4,1.5,6.4,2,0,4.92-9.4,7.16-17.1.45,0,2.09.9,2.09,1.4-4.4,16-6.72,23-11.57,23-3.28,0-4.62-5.4-4.62-13.9a174.81,174.81,0,0,1,2.53-27.4,22.55,22.55,0,0,1-3.28-.1l.52-4.7c.52,0,1.79.09,3.36.09,1-6.9,1.94-13.6,3.66-23.7Z" transform="translate(-151.5 -150.5)"/><path class="cls-1" d="M375.7,229.16c-2.62,15.6-4.78,27.2-4.78,35.4,0,2.9.82,3.4,1.49,3.4,1.94,0,4.41-5.6,7.69-17.1.37,0,2.09.7,2.09,1.3v.1c-3.28,11.4-5.9,23-12,23-4,0-5.37-5-5.37-11.9,0-11.1,3.28-27,4.55-34.2Zm-5.45-10.91c0-3.6,1.94-7.9,5.22-7.9,2.47,0,3.51,2.4,3.51,5.2,0,3.6-1.94,7.8-5.22,7.8C371.37,223.35,370.25,221,370.25,218.25Z" transform="translate(-151.5 -150.5)"/><path class="cls-1" d="M397.42,229.25h5.3c-2.24,13.31-3.66,24.11-4.7,34a17.62,17.62,0,0,0-.15,2.6c0,1.5.22,2.2.59,2.2.83,0,4-4.8,7.54-17.2.45,0,2.09.8,2.09,1.4-4.55,16-8.21,23-11.64,23-2.39,0-3.73-2.9-3.73-9.8v-1.1c-1.72,6.1-4.33,11.4-8.66,11.4-3.66,0-5.15-5.4-5.15-12.7,0-14.1,5.75-34.91,12.84-34.91,2.76,0,4.33,2.2,4.85,6.71Zm-12.24,32.81c0,3.1.44,5.2,1.57,5.2,3.43,0,7.68-16.3,7.68-25.6,0-3.7-.67-6.3-2.31-6.3C389,235.36,385.18,253,385.18,262.06Z" transform="translate(-151.5 -150.5)"/><path class="cls-1" d="M422.87,250.86c.38,0,1.8.8,1.8,1.3v.1c-4.41,16-7.84,23.5-12.69,23.5-4.48,0-6.27-5.9-6.27-16.3a232.9,232.9,0,0,1,2.38-28.3c3.36-25.11,8.07-36.41,12.4-36.41,3.88,0,5,4.2,5,9.3a77.74,77.74,0,0,1-2.24,16.1A97.52,97.52,0,0,1,412.2,248c-.37,4.3-.6,8.2-.6,11.4,0,6.7,1.12,8.8,2.84,8.8C416.83,268.16,419.66,262,422.87,250.86Zm-1.41-49.41c-2,0-6.42,21.6-8.59,40.21,3.73-9.1,9.26-25.81,9.33-38C422.2,202.25,421.83,201.45,421.46,201.45Z" transform="translate(-151.5 -150.5)"/><path class="cls-1" d="M184.94,188.6c7.08-.42,14.45-.23,20.88,2.78s11.69,9.46,11.35,16.55c-.33,6.92-5.64,12.54-11.14,16.75" transform="translate(-151.5 -150.5)"/><path class="cls-1" d="M160.21,234.69" transform="translate(-151.5 -150.5)"/><path class="cls-1" d="M158.43,266c2.51,17,18.41,48.55,40.21,36.51a46.79,46.79,0,0,0,14-12.11" transform="translate(-151.5 -150.5)"/><line class="cls-1" x1="24.75" y1="18.61" x2="25.93" y2="25.5"/><rect class="cls-1" width="273" height="29"/><rect class="cls-1" y="162" width="273" height="29"/></svg>